<svg id="Layer_1" data-name="Layer 1" xmlns="http://www.w3.org/2000/svg" xmlns:xlink="http://www.w3.org/1999/xlink" width="316.13" height="94.5" viewBox="0 0 316.13 94.5"><defs><style>.cls-1{fill:#455a81;}.cls-2{fill:url(#White_Black);}.cls-3{fill:url(#Summer_2);}.cls-4{fill:red;}.cls-5{fill:#baeeff;}.cls-6{fill:#002d81;}.cls-7{fill:#fff;}</style><linearGradient id="White_Black" x1="-357.39" y1="1366.78" x2="-344.48" y2="1366.78" gradientTransform="translate(58.38 -1353.46) rotate(-23.37)" gradientUnits="userSpaceOnUse"><stop offset="0" stop-color="#fff"/><stop offset="1"/></linearGradient><linearGradient id="Summer_2" x1="-352.82" y1="1367.45" x2="-351.31" y2="1367.45" gradientTransform="translate(629.68 -1325.99)" gradientUnits="userSpaceOnUse"><stop offset="0" stop-color="#fff"/><stop offset="0.09" stop-color="#ffedd8"/><stop offset="0.21" stop-color="#ffd5a7"/><stop offset="0.33" stop-color="#ffc17d"/><stop offset="0.46" stop-color="#ffb05b"/><stop offset="0.59" stop-color="#ffa340"/><stop offset="0.72" stop-color="#ff9a2d"/><stop offset="0.86" stop-color="#ff9522"/><stop offset="1" stop-color="#ff931e"/></linearGradient></defs><title>Artboard 34</title><path class="cls-1" d="M301.31,34.5h7.88c9.84,1,7.32,4.49,3.94,4.92-14.78,1.87-35.44,19.69-35.44,19.69s-49.94-3-66,1c-5.57,1.38-20.5,10.39-20.5,10.39L87.7,84.7l8.35-15.78,20.22-7.1c1.6-.56,2.93-5.66,2.93-5.66s5.21,2.81,6.85,2.24c17.67-6.18,38.59-13.45,49.26-17,8.86-3,0-38.39,0-38.39S206,26.65,216.66,32.53Z"/><polyline class="cls-2" points="286.42 42.72 270.36 38.08 272.47 42.96 286.42 42.72"/><ellipse class="cls-3" cx="277.62" cy="41.46" rx="0.75" ry="1.61" transform="translate(6.33 113.52) rotate(-23.37)"/><ellipse class="cls-4" cx="277.62" cy="41.46" rx="0.32" ry="0.75" transform="translate(6.33 113.52) rotate(-23.37)"/><path class="cls-5" d="M316.13,37.88,308.2,47.3s-20.67,2-30.51,11.81c-5,5,27.56,5.91,27.56,5.91l1.15,3.06L255.05,81.75,99.89,80"/><path class="cls-6" d="M303.24,75.91c.57-1,2.16-2.34,5-4,25.39-15.1-132.89,20.67-118.12,1,14.17-18.9-106.22,25.59-94.5-1C104.72,51.18,0,97.5,0,97.5H289.86C289.61,89,295.41,78.94,303.24,75.91Z"/><path class="cls-1" d="M59.27,74.12s-12.82-14.92-18.82-19c-4.52-3-20.67-9.84-20.67-9.84S23.64,49.78,28,55.7c.91,1.24,6.59,2.43,6.59,2.43s-2.18,3.92-1.4,5.17c4.26,6.76,7.59,13.82,6.38,18"/><path class="cls-1" d="M209.77,69c-2-10.82,23.62-7.87,29.53-8.86,11.9-2-37.41,33.47-37.41,33.47S210.92,75.31,209.77,69Z"/><path d="M247.28,47.29s-2,14-2,18.7"/><path d="M252.09,46.31s-4.3,14.62-2,18.71"/><path d="M258,45.33S253.82,60.59,256,65"/><path d="M263.91,45.33s-3.81,15.09-2,19.69"/><polygon class="cls-7" points="303.38 47.62 307.81 46.83 306.54 53.91 303.38 47.62"/><polygon class="cls-7" points="305.26 64.9 300.75 64.94 303.2 58.16 305.26 64.9"/><polygon class="cls-7" points="300.71 64.9 296.21 64.94 298.65 58.16 300.71 64.9"/><polygon class="cls-7" points="296.16 64.9 291.66 64.94 294.11 58.16 296.16 64.9"/><polygon class="cls-7" points="291.48 64.75 287.83 64.11 290.81 59 291.48 64.75"/><polygon class="cls-7" points="287.94 64.25 285.62 63.84 287.52 60.59 287.94 64.25"/><polygon class="cls-7" points="285.41 63.74 283.84 63.47 285.13 61.26 285.41 63.74"/><polygon class="cls-7" points="283.9 63.24 282.32 62.96 283.61 60.75 283.9 63.24"/><polygon class="cls-7" points="282.38 63.24 280.81 62.96 282.1 60.75 282.38 63.24"/><polygon class="cls-7" points="280.87 62.73 279.95 62.57 280.7 61.29 280.87 62.73"/><polygon class="cls-7" points="298.72 48.74 303.12 47.78 302.12 54.91 298.72 48.74"/><polygon class="cls-7" points="285.55 53.47 289.65 51.59 290.19 58.77 285.55 53.47"/><polygon class="cls-7" points="281.51 55.49 285.61 53.61 286.15 60.8 281.51 55.49"/><polygon class="cls-7" points="279.62 57.28 281.63 55.78 282.76 59.62 279.62 57.28"/><polygon class="cls-7" points="278.25 58.31 279.61 57.29 280.37 59.89 278.25 58.31"/><polygon class="cls-7" points="289.65 51.65 293.9 50.15 293.78 57.35 289.65 51.65"/><polygon class="cls-7" points="294.12 49.8 298.5 48.76 297.63 55.91 294.12 49.8"/></svg>