<svg id="Layer_1" data-name="Layer 1" xmlns="http://www.w3.org/2000/svg" xmlns:xlink="http://www.w3.org/1999/xlink" width="1920" height="1083.98" viewBox="0 0 1920 1083.98"><defs><style>.cls-1{fill:url(#linear-gradient);}.cls-2{fill:url(#linear-gradient-2);}</style><linearGradient id="linear-gradient" x1="1555" y1="693.51" x2="1915" y2="693.51" gradientUnits="userSpaceOnUse"><stop offset="0.18" stop-color="#b27900"/><stop offset="1" stop-color="#ffb519"/><stop offset="1" stop-color="#606060"/></linearGradient><linearGradient id="linear-gradient-2" x1="958" y1="293.02" x2="958" y2="-5.98" gradientUnits="userSpaceOnUse"><stop offset="0" stop-color="aqua"/><stop offset="0.63" stop-color="#baeeff"/><stop offset="1" stop-color="#fff"/><stop offset="1" stop-color="#f4ffff"/></linearGradient></defs><title>Artboard 62</title><path class="cls-1" d="M1648,1085.29h255c6.6,0,12-3.9,12-8.66V311.81c0-4.77-5.4-8.67-12-8.67h-48c-6.6,0-69-4.77-69,0,0,0-23.14,69.25-27,92.44-7.07,42.45-53.53,89.51-42,131.44,10.74,39.07-30.22,165.3-32,205.11-1.18,26.5-68.73,77.72-73,130.72-3.62,44.95,55.83,92.35,56,114.83.3,40.76-113,105.45-113,105.45C1555,1087.89,1641.4,1085.29,1648,1085.29Z"/><rect class="cls-2" x="-2" y="-5.98" width="1920" height="299"/></svg>