<svg id="Layer_1" data-name="Layer 1" xmlns="http://www.w3.org/2000/svg" width="1920" height="1083.98" viewBox="0 0 1920 1083.98"><defs><style>.cls-1{fill:#fcff34;}.cls-2{fill:#7b27ce;}.cls-3{fill:#7f8107;}.cls-4{fill:#6a5281;}</style></defs><title>Artboard 61</title><rect class="cls-1" x="1845.67" y="370.99" width="30.41" height="13.75" transform="translate(1467.37 -1479.77) rotate(66.56)"/><rect class="cls-2" x="1833.06" y="376.46" width="30.41" height="13.75" transform="translate(1464.79 -1464.9) rotate(66.56)"/><rect class="cls-2" x="1858.29" y="365.52" width="30.41" height="13.75" transform="translate(1469.95 -1494.64) rotate(66.56)"/><rect class="cls-1" x="1870.9" y="360.05" width="30.41" height="13.75" transform="translate(1472.53 -1509.51) rotate(66.56)"/><rect class="cls-2" x="1883.52" y="354.58" width="30.41" height="13.75" transform="translate(1475.11 -1524.37) rotate(66.56)"/><rect class="cls-1" x="1810.77" y="478.29" width="55.54" height="18.35" transform="translate(1520.02 -1387.74) rotate(65.51)"/><rect class="cls-3" x="1794.07" y="485.9" width="55.54" height="18.35" transform="translate(1517.16 -1368.09) rotate(65.51)"/><rect class="cls-3" x="1827.48" y="470.68" width="55.54" height="18.35" transform="translate(1522.87 -1407.39) rotate(65.51)"/><rect class="cls-1" x="1844.18" y="463.08" width="55.54" height="18.35" transform="translate(1525.73 -1427.05) rotate(65.51)"/><rect class="cls-3" x="1860.88" y="455.47" width="55.54" height="18.35" transform="translate(1528.58 -1446.7) rotate(65.51)"/><rect class="cls-4" x="1776.45" y="676.14" width="79.23" height="26.18" transform="translate(1541.16 -1233.68) rotate(61.08)"/><rect class="cls-2" x="1753.54" y="688.8" width="79.23" height="26.18" transform="translate(1540.41 -1207.08) rotate(61.08)"/><rect class="cls-2" x="1799.37" y="663.48" width="79.23" height="26.18" transform="translate(1541.91 -1260.28) rotate(61.08)"/><rect class="cls-4" x="1821.68" y="651.15" width="79.23" height="26.18" transform="translate(1542.64 -1286.17) rotate(61.08)"/><rect class="cls-2" x="1844.6" y="638.49" width="79.23" height="26.18" transform="translate(1543.4 -1312.77) rotate(61.08)"/><rect class="cls-2" x="1721.36" y="937.22" width="104.97" height="34.69" transform="translate(1804.39 -1059.58) rotate(62.58)"/><rect class="cls-3" x="1690.57" y="953.19" width="104.97" height="34.69" transform="translate(1801.95 -1023.63) rotate(62.58)"/><rect class="cls-3" x="1752.15" y="921.25" width="104.97" height="34.69" transform="translate(1806.82 -1095.53) rotate(62.58)"/><rect class="cls-2" x="1782.94" y="905.27" width="104.97" height="34.69" transform="translate(1809.26 -1131.48) rotate(62.58)"/><rect class="cls-3" x="1813.73" y="889.3" width="104.97" height="34.69" transform="translate(1811.69 -1167.43) rotate(62.58)"/></svg>