<svg id="Layer_1" data-name="Layer 1" xmlns="http://www.w3.org/2000/svg" xmlns:xlink="http://www.w3.org/1999/xlink" width="409.8" height="122.5" viewBox="0 0 409.8 122.5"><defs><style>.cls-1{fill:#455a81;}.cls-2{fill:url(#White_Black);}.cls-3{fill:url(#Summer_2);}.cls-4{fill:red;}.cls-5{fill:#baeeff;}.cls-6{fill:#002d81;}.cls-7{fill:#fff;}</style><linearGradient id="White_Black" x1="-421.88" y1="1390.15" x2="-405.16" y2="1390.15" gradientTransform="translate(189.05 -1391.65) rotate(-23.37)" gradientUnits="userSpaceOnUse"><stop offset="0" stop-color="#fff"/><stop offset="1"/></linearGradient><linearGradient id="Summer_2" x1="-415.96" y1="1391.01" x2="-414.01" y2="1391.01" gradientTransform="translate(774.86 -1341.16)" gradientUnits="userSpaceOnUse"><stop offset="0" stop-color="#fff"/><stop offset="0.09" stop-color="#ffedd8"/><stop offset="0.21" stop-color="#ffd5a7"/><stop offset="0.33" stop-color="#ffc17d"/><stop offset="0.46" stop-color="#ffb05b"/><stop offset="0.59" stop-color="#ffa340"/><stop offset="0.72" stop-color="#ff9a2d"/><stop offset="0.86" stop-color="#ff9522"/><stop offset="1" stop-color="#ff931e"/></linearGradient></defs><title>Artboard 35</title><path class="cls-1" d="M390.59,40.83H400.8c12.76,1.28,9.49,5.83,5.1,6.38C386.75,49.64,360,72.73,360,72.73s-64.74-3.84-85.5,1.28c-7.23,1.78-26.58,13.46-26.58,13.46l-134.2,18.44,10.82-20.46s11-3.89,26.21-9.2c2.07-.73,3.8-7.34,3.8-7.34s6.75,3.65,8.88,2.9c22.9-8,50-17.43,63.86-22,11.48-3.83,0-49.77,0-49.77S267,30.66,280.85,38.28Z"/><polyline class="cls-2" points="371.29 51.48 350.47 45.47 353.2 51.79 371.29 51.48"/><ellipse class="cls-3" cx="359.87" cy="49.85" rx="0.98" ry="2.09" transform="translate(9.75 146.84) rotate(-23.37)"/><ellipse class="cls-4" cx="359.87" cy="49.85" rx="0.42" ry="0.98" transform="translate(9.75 146.84) rotate(-23.37)"/><path class="cls-5" d="M409.8,45.22l-10.28,12.2S372.73,60,360,72.73c-6.46,6.46,35.73,7.66,35.73,7.66l1.48,4-66.56,17.71L129.49,99.81"/><path class="cls-6" d="M393.09,94.52c.74-1.33,2.8-3,6.43-5.2,32.91-19.56-172.26,26.8-153.12,1.28,18.37-24.5-137.69,33.18-122.5-1.28C135.74,62.45,0,122.5,0,122.5H375.75C375.43,111.41,382.94,98.45,393.09,94.52Z"/><path class="cls-1" d="M76.83,92.2S60.21,72.85,52.44,67.63c-5.86-3.94-26.8-12.76-26.8-12.76s5,5.77,10.61,13.44c1.18,1.62,8.53,3.15,8.53,3.15S42,76.55,43,78.17c5.51,8.76,9.83,17.91,8.26,23.29"/><path class="cls-1" d="M271.92,85.49c-2.55-14,30.62-10.2,38.28-11.48,15.43-2.57-48.49,43.39-48.49,43.39S273.42,93.73,271.92,85.49Z"/><path d="M320.54,57.41S318,75.56,318,81.65"/><path d="M326.79,56.15s-5.58,18.95-2.55,24.24"/><path d="M334.45,54.87S329,74.66,331.89,80.39"/><path d="M342.1,54.87s-4.93,19.57-2.55,25.52"/><polygon class="cls-7" points="393.27 57.84 399.02 56.81 397.36 66 393.27 57.84"/><polygon class="cls-7" points="395.7 80.24 389.87 80.29 393.04 71.51 395.7 80.24"/><polygon class="cls-7" points="389.81 80.24 383.97 80.29 387.14 71.51 389.81 80.24"/><polygon class="cls-7" points="383.91 80.24 378.08 80.29 381.25 71.51 383.91 80.24"/><polygon class="cls-7" points="377.84 80.05 373.12 79.22 376.98 72.59 377.84 80.05"/><polygon class="cls-7" points="373.25 79.39 370.25 78.87 372.71 74.65 373.25 79.39"/><polygon class="cls-7" points="369.98 78.74 367.94 78.38 369.61 75.52 369.98 78.74"/><polygon class="cls-7" points="368.01 78.08 365.97 77.73 367.64 74.87 368.01 78.08"/><polygon class="cls-7" points="366.05 78.08 364.01 77.73 365.68 74.87 366.05 78.08"/><polygon class="cls-7" points="364.08 77.43 362.9 77.22 363.87 75.56 364.08 77.43"/><polygon class="cls-7" points="387.23 59.29 392.94 58.05 391.63 67.29 387.23 59.29"/><polygon class="cls-7" points="370.16 65.42 375.47 62.99 376.17 72.3 370.16 65.42"/><polygon class="cls-7" points="364.92 68.04 370.23 65.61 370.93 74.92 364.92 68.04"/><polygon class="cls-7" points="362.48 70.36 365.07 68.42 366.54 73.39 362.48 70.36"/><polygon class="cls-7" points="360.7 71.69 362.45 70.38 363.45 73.74 360.7 71.69"/><polygon class="cls-7" points="375.47 63.06 380.98 61.12 380.83 70.46 375.47 63.06"/><polygon class="cls-7" points="381.27 60.67 386.95 59.32 385.82 68.59 381.27 60.67"/></svg>