<svg id="Layer_1" data-name="Layer 1" xmlns="http://www.w3.org/2000/svg" xmlns:xlink="http://www.w3.org/1999/xlink" width="625.6" height="187.01" viewBox="0 0 625.6 187.01"><defs><style>.cls-1{fill:#455a81;}.cls-2{fill:url(#White_Black);}.cls-3{fill:url(#Summer_2);}.cls-4{fill:red;}.cls-5{fill:#baeeff;}.cls-6{fill:#002d81;}.cls-7{fill:#fff;}</style><linearGradient id="White_Black" x1="-431.84" y1="1468.31" x2="-406.3" y2="1468.31" gradientTransform="translate(353.17 -1440.08) rotate(-23.37)" gradientUnits="userSpaceOnUse"><stop offset="0" stop-color="#fff"/><stop offset="1"/></linearGradient><linearGradient id="Summer_2" x1="-422.8" y1="1469.62" x2="-419.82" y2="1469.62" gradientTransform="translate(970.69 -1393.52)" gradientUnits="userSpaceOnUse"><stop offset="0" stop-color="#fff"/><stop offset="0.09" stop-color="#ffedd8"/><stop offset="0.21" stop-color="#ffd5a7"/><stop offset="0.33" stop-color="#ffc17d"/><stop offset="0.46" stop-color="#ffb05b"/><stop offset="0.59" stop-color="#ffa340"/><stop offset="0.72" stop-color="#ff9a2d"/><stop offset="0.86" stop-color="#ff9522"/><stop offset="1" stop-color="#ff931e"/></linearGradient></defs><title>Artboard 36</title><path class="cls-1" d="M596.27,62.34h15.59c19.48,1.94,14.48,8.89,7.79,9.73-29.25,3.71-70.13,39-70.13,39S450.69,105.17,419,113c-11,2.73-40.58,20.56-40.58,20.56L173.56,161.68l16.51-31.23s16.88-5.94,40-14c3.16-1.11,5.8-11.21,5.8-11.21s10.3,5.57,13.55,4.44C284.41,97.4,325.81,83,346.93,76c17.53-5.84,0-76,0-76s60.66,46.8,81.81,58.44Z"/><polyline class="cls-2" points="566.81 78.59 535.02 69.42 539.2 79.07 566.81 78.59"/><ellipse class="cls-3" cx="549.38" cy="76.1" rx="1.49" ry="3.19" transform="translate(14.88 224.17) rotate(-23.37)"/><ellipse class="cls-4" cx="549.38" cy="76.1" rx="0.64" ry="1.49" transform="translate(14.88 224.17) rotate(-23.37)"/><path class="cls-5" d="M625.6,69,609.91,87.66S569,91.56,549.52,111c-9.86,9.86,54.54,11.68,54.54,11.68l2.27,6.07L504.72,155.84l-307.05-3.47"/><path class="cls-6" d="M600.08,144.29c1.13-2,4.28-4.63,9.83-7.93,50.23-29.87-263,40.91-233.76,1.95,28.05-37.41-210.2,50.65-187-1.95C207.23,95.34,0,187,0,187H573.61C573.12,170.08,584.6,150.29,600.08,144.29Z"/><path class="cls-1" d="M117.29,140.74s-25.38-29.53-37.24-37.5c-9-6-40.9-19.48-40.9-19.48s7.63,8.81,16.18,20.52c1.81,2.47,13,4.81,13,4.81s-4.31,7.77-2.76,10.24c8.41,13.38,15,27.34,12.61,35.56"/><path class="cls-1" d="M415.11,130.52c-3.9-21.43,46.75-15.59,58.44-17.54,23.56-3.92-74,66.24-74,66.24S417.4,143.09,415.11,130.52Z"/><path d="M489.34,87.64s-3.9,27.71-3.9,37"/><path d="M498.87,85.71s-8.51,28.94-3.89,37"/><path d="M510.56,83.76s-8.27,30.21-3.9,39"/><path d="M522.25,83.76s-7.53,29.88-3.9,39"/><polygon class="cls-7" points="600.36 88.3 609.13 86.73 606.61 100.76 600.36 88.3"/><polygon class="cls-7" points="604.08 122.5 595.17 122.57 600.01 109.16 604.08 122.5"/><polygon class="cls-7" points="595.08 122.5 586.17 122.57 591.01 109.16 595.08 122.5"/><polygon class="cls-7" points="586.08 122.5 577.17 122.57 582.01 109.16 586.08 122.5"/><polygon class="cls-7" points="576.81 122.2 569.59 120.94 575.5 110.82 576.81 122.2"/><polygon class="cls-7" points="569.81 121.2 565.21 120.4 568.97 113.96 569.81 121.2"/><polygon class="cls-7" points="564.81 120.2 561.69 119.66 564.24 115.29 564.81 120.2"/><polygon class="cls-7" points="561.81 119.2 558.69 118.66 561.24 114.29 561.81 119.2"/><polygon class="cls-7" points="558.81 119.2 555.69 118.66 558.24 114.29 558.81 119.2"/><polygon class="cls-7" points="555.81 118.2 554 117.89 555.48 115.36 555.81 118.2"/><polygon class="cls-7" points="591.14 90.51 599.85 88.61 597.86 102.73 591.14 90.51"/><polygon class="cls-7" points="565.09 99.87 573.19 96.16 574.26 110.37 565.09 99.87"/><polygon class="cls-7" points="557.09 103.87 565.19 100.16 566.26 114.37 557.09 103.87"/><polygon class="cls-7" points="553.35 107.41 557.32 104.44 559.56 112.04 553.35 107.41"/><polygon class="cls-7" points="550.64 109.45 553.32 107.44 554.83 112.57 550.64 109.45"/><polygon class="cls-7" points="573.19 96.27 581.6 93.31 581.37 107.56 573.19 96.27"/><polygon class="cls-7" points="582.04 92.62 590.71 90.56 588.99 104.71 582.04 92.62"/></svg>