<svg id="Layer_1" data-name="Layer 1" xmlns="http://www.w3.org/2000/svg" width="207" height="209" viewBox="0 0 207 209"><defs><style>.cls-1{fill:#cea982;}.cls-2{fill:none;stroke:#000;stroke-miterlimit:10;stroke-width:37px;}</style></defs><title>Artboard 16</title><ellipse cx="107.96" cy="109" rx="99.04" ry="100"/><ellipse class="cls-1" cx="99.04" cy="100" rx="99.04" ry="100"/><path d="M175.89,109.94H37.09A10.86,10.86,0,0,1,26.32,99.06h0A10.85,10.85,0,0,1,37.09,88.19h138.8"/><path d="M21.54,88.19h138.8A10.84,10.84,0,0,1,171.1,99.06h0a10.85,10.85,0,0,1-10.76,10.88H21.54"/><path d="M53.07,37l98.14,99.09a11,11,0,0,1,0,15.38h0a10.74,10.74,0,0,1-15.23,0L37.84,52.37"/><path d="M145.11,160.68,47,61.58a11,11,0,0,1,0-15.37h0a10.73,10.73,0,0,1,15.23,0l98.15,99.09"/><path d="M110.08,23V163.09A10.86,10.86,0,0,1,99.31,174h0a10.86,10.86,0,0,1-10.77-10.88V23"/><path d="M110.08,175.17V35A10.85,10.85,0,0,0,99.31,24.16h0A10.85,10.85,0,0,0,88.54,35V175.17"/><path d="M160.79,52.37l-98.15,99.1a10.74,10.74,0,0,1-15.23,0h0a11,11,0,0,1,0-15.38L145.56,37"/><path d="M37.09,146.51l98.15-99.09a10.73,10.73,0,0,1,15.23,0h0a11,11,0,0,1,0,15.37l-98.15,99.1"/><ellipse class="cls-1" cx="98.12" cy="97.86" rx="16.75" ry="16.91"/><ellipse class="cls-2" cx="98.41" cy="97.55" rx="40.98" ry="41.38"/></svg>