<svg id="Layer_1" data-name="Layer 1" xmlns="http://www.w3.org/2000/svg" width="128.02" height="190" viewBox="0 0 128.02 190"><defs><style>.cls-1,.cls-2{stroke:#000;stroke-miterlimit:10;}.cls-1{stroke-width:2px;}.cls-2{fill:#82bbce;stroke-width:0.5px;opacity:0.5;}.cls-3{fill:#815d38;}</style></defs><title>Artboard 53</title><rect class="cls-1" x="1" y="180.74" width="123.96" height="8.26" rx="2"/><polyline class="cls-2" points="70.2 94.64 122.89 179.7 3.07 179.7 57.6 94.69"/><rect class="cls-1" x="3.07" y="1" width="123.96" height="8.26" rx="2" transform="translate(130.09 10.26) rotate(-180)"/><polyline class="cls-2" points="57.82 95.36 5.13 10.3 124.96 10.3 70.42 95.31"/><path class="cls-3" d="M5.13,178.67H120.82l-10.33-16.53s-33-20.32-45.45-20.66c-12.75-.34-47.51,18.6-47.51,18.6"/><path class="cls-3" d="M64,150.78h0a6.22,6.22,0,0,1-6.2-6.2V97.07c0-3.41-.31-15.5,3.1-15.5l8.27-6.2c3.4,0,1,18.29,1,21.7v47.51A6.22,6.22,0,0,1,64,150.78Z"/><polyline class="cls-3" points="40.25 65.04 87.77 65.04 62.98 104.3 58.85 93.97"/></svg>