<svg id="Layer_1" data-name="Layer 1" xmlns="http://www.w3.org/2000/svg" xmlns:xlink="http://www.w3.org/1999/xlink" width="1920" height="1083.98" viewBox="0 0 1920 1083.98"><defs><style>.cls-1{fill:url(#linear-gradient);}.cls-2{fill:url(#linear-gradient-2);}</style><linearGradient id="linear-gradient" x1="1561" y1="688.51" x2="1921" y2="688.51" gradientUnits="userSpaceOnUse"><stop offset="0.18" stop-color="#b27900"/><stop offset="1" stop-color="#ffb519"/><stop offset="1" stop-color="#606060"/></linearGradient><linearGradient id="linear-gradient-2" x1="958" y1="293.02" x2="958" y2="-5.98" gradientUnits="userSpaceOnUse"><stop offset="0" stop-color="aqua"/><stop offset="0.63" stop-color="#baeeff"/><stop offset="1" stop-color="#fff"/><stop offset="1" stop-color="#f4ffff"/></linearGradient></defs><title>Artboard 62</title><path class="cls-1" d="M1654,1083.29h255c6.6,0,12-3.93,12-8.74V303.89c0-4.81-5.4-8.74-12-8.74h-48c-6.6,0-69-4.8-69,0,0,0-23.14,69.78-27,93.15-7.07,42.78-53.53,90.2-42,132.45,10.74,39.37-30.22,166.56-32,206.68-1.18,26.7-68.73,78.31-73,131.72-3.62,45.29,55.83,93.05,56,115.71.3,41.07-113,106.24-113,106.24C1561,1085.91,1647.4,1083.29,1654,1083.29Z"/><rect class="cls-2" x="-2" y="-5.98" width="1920" height="299"/></svg>