<svg id="Layer_1" data-name="Layer 1" xmlns="http://www.w3.org/2000/svg" xmlns:xlink="http://www.w3.org/1999/xlink" width="1920" height="1080" viewBox="0 0 1920 1080"><defs><style>.cls-1{fill:url(#linear-gradient);}.cls-2{opacity:0.55;}.cls-3{opacity:0.36;}.cls-22,.cls-4{fill:#457281;}.cls-21,.cls-5{fill:#baeeff;}.cls-6{fill:#4555a9;}.cls-7{fill:#fff;}.cls-10,.cls-13,.cls-14,.cls-15,.cls-16,.cls-17,.cls-23,.cls-24,.cls-25,.cls-7{stroke:#000;}.cls-10,.cls-11,.cls-13,.cls-14,.cls-15,.cls-16,.cls-17,.cls-18,.cls-20,.cls-21,.cls-22,.cls-23,.cls-24,.cls-25,.cls-7{stroke-miterlimit:10;}.cls-8{fill:url(#radial-gradient);}.cls-9{fill:#1a1a1a;}.cls-10,.cls-23{fill:#cea982;}.cls-11,.cls-18,.cls-20{fill:none;}.cls-11,.cls-18{stroke:#4d4d4d;}.cls-12{fill:#333;}.cls-13{fill:url(#White_Black);}.cls-14,.cls-15,.cls-17,.cls-22{stroke-width:0.5px;}.cls-14{fill:url(#Summer_2);}.cls-15{fill:red;}.cls-16{fill:url(#White_Black-2);}.cls-17{fill:url(#Summer_2-2);}.cls-18{stroke-width:5px;}.cls-19,.cls-24,.cls-25{fill:#815d38;}.cls-20,.cls-21{stroke:#006837;}.cls-20{stroke-width:7px;}.cls-21{opacity:0.15;}.cls-22{stroke:#baeeff;opacity:0.19;}.cls-23,.cls-24{stroke-width:3px;}.cls-25{font-size:53.22px;stroke-width:2px;font-family:LuckiestGuy-Regular, Luckiest Guy;}</style><linearGradient id="linear-gradient" x1="953" y1="1077" x2="953" y2="-7" gradientUnits="userSpaceOnUse"><stop offset="0" stop-color="#000a81"/><stop offset="0.52" stop-color="#020c86"/><stop offset="0.76" stop-color="#1f2dce"/><stop offset="0.93" stop-color="#2738ff"/><stop offset="1" stop-color="#606060"/></linearGradient><radialGradient id="radial-gradient" cx="966.84" cy="664.41" r="313.81" gradientUnits="userSpaceOnUse"><stop offset="0" stop-color="#cce0f4"/><stop offset="0.04" stop-color="#c3dcf2"/><stop offset="0.12" stop-color="#a9d2ee"/><stop offset="0.21" stop-color="#80c2e7"/><stop offset="0.32" stop-color="#47acde"/><stop offset="0.39" stop-color="#1e9cd7"/><stop offset="0.56" stop-color="#0075be"/><stop offset="0.86" stop-color="#457281"/><stop offset="0.99" stop-color="#457281"/></radialGradient><linearGradient id="White_Black" x1="971.96" y1="582.93" x2="1076.57" y2="582.93" gradientTransform="translate(-158.75)" gradientUnits="userSpaceOnUse"><stop offset="0" stop-color="#fff"/><stop offset="1"/></linearGradient><linearGradient id="Summer_2" x1="1008.98" y1="588.31" x2="1021.19" y2="588.31" gradientTransform="translate(-158.75)" gradientUnits="userSpaceOnUse"><stop offset="0" stop-color="#fff"/><stop offset="0.09" stop-color="#ffedd8"/><stop offset="0.21" stop-color="#ffd5a7"/><stop offset="0.33" stop-color="#ffc17d"/><stop offset="0.46" stop-color="#ffb05b"/><stop offset="0.59" stop-color="#ffa340"/><stop offset="0.72" stop-color="#ff9a2d"/><stop offset="0.86" stop-color="#ff9522"/><stop offset="1" stop-color="#ff931e"/></linearGradient><linearGradient id="White_Black-2" x1="974.83" y1="581.89" x2="1081.97" y2="581.89" gradientTransform="matrix(-1, 0, 0, 1, 2113.5, 0)" xlink:href="#White_Black"/><linearGradient id="Summer_2-2" x1="1012.75" y1="587.4" x2="1025.25" y2="587.4" gradientTransform="matrix(-1, 0, 0, 1, 2113.5, 0)" xlink:href="#Summer_2"/></defs><title>Artboard 1 copy</title><rect class="cls-1" x="-12" y="-7" width="1930" height="1084"/><path class="cls-2" d="M478.67,1002.46,363.67,912,303.73,746.7l23.74,18.19L339,748.56l9.31,7.18-14.51,17.49L415.56,833l67.64-2.07,7.35,1,17.69-20.06L532,830s34.57-6.55,75.69,21.48c11.72,8,56.62-3.55,56.62-3.55l10,8.84-22.86,30.59,20.56,14L663.86,934l81.23,63.41,19.38-4.86L747.58,979l1-7.35L780,961l26.42,26L842,973.09l20,17.69-22.85,30.58L856,1034.88l-2,14.7s-20.56-14-40.93-1.8c-24.84,14.89-41.92,5.55-41.92,5.55L750.14,1043l-8.34,6.35-61.68-42L675,1017.83s-117.23,36.51-160.71-29.27C509,980.6,478.67,1002.46,478.67,1002.46Z"/><path class="cls-3" d="M367,729.17c-9.64,11.69-30.28,20.64-30.28,20.64s10.87-20.12,11-27.53C348,712.06,334,683.75,334,683.75s28.87,24.49,33.72,35.78c2.06,4.82,43.86-4.3,59.86-9.63,4.13-1.38,5.5-28.9,5.5-28.9s15.83,11.7,17.89,22c1.91,9.54,19.27-8.95,78.44,20.64,18.36,9.18-7.91,10.73-11.69,13.76-10.33,8.26-16.52,10.32-48.17,9-4.4-.19-.69,3.44-13.76,7.57-1,.31.16-4.74-.69-4.13C450.28,753.25,429,756,429,756s14.08-10.63,10.33-11c-6.89-.69-14.45-.69-26.15-2.75-1.14-.2-2.07,4.13-2.07,4.13s-2.94-5.63-4.81-6.2c-1.56-.47-6.19,2.07-6.19,2.07s-1.39-4.61-2.76-4.82C388.36,736.05,368.34,727.57,367,729.17Z"/><path class="cls-3" d="M179.12,499.84c-16.37,19.88-51.44,35.07-51.44,35.07s18.47-34.17,18.7-46.76c.33-17.38-23.38-65.47-23.38-65.47s49.06,41.6,57.29,60.79c3.51,8.19,74.52-7.3,101.71-16.37,7-2.33,9.36-49.1,9.36-49.1s26.89,19.88,30.39,37.41c3.25,16.22,32.74-15.2,133.29,35.08,31.19,15.6-13.45,18.23-19.88,23.38-17.54,14-28.06,17.54-81.84,15.2-7.48-.33-1.17,5.84-23.38,12.86-1.7.53.28-8-1.17-7-8.18,5.85-44.43,10.53-44.43,10.53s23.92-18.07,17.54-18.71c-11.69-1.17-24.55-1.17-44.43-4.68-1.93-.34-3.51,7-3.51,7s-5-9.56-8.18-10.52c-2.65-.81-10.52,3.5-10.52,3.5s-2.35-7.82-4.68-8.18C215.36,511.53,181.35,497.13,179.12,499.84Z"/><path class="cls-3" d="M1360.19,525.16c-11.43,13.88-35.92,24.49-35.92,24.49s12.9-23.87,13.06-32.66c.23-12.14-16.33-45.72-16.33-45.72s34.26,29.05,40,42.45c2.45,5.72,52-5.1,71-11.43,4.89-1.63,6.53-34.29,6.53-34.29s18.78,13.88,21.23,26.13c2.26,11.32,22.86-10.62,93.08,24.49,21.79,10.9-9.39,12.74-13.88,16.33-12.25,9.8-19.6,12.25-57.16,10.62-5.22-.23-.81,4.08-16.33,9-1.18.37.2-5.62-.81-4.9-5.72,4.08-31,7.35-31,7.35s16.7-12.62,12.25-13.06c-8.17-.82-17.15-.82-31-3.27-1.35-.24-2.45,4.9-2.45,4.9s-3.49-6.68-5.72-7.35c-1.85-.56-7.34,2.45-7.34,2.45s-1.64-5.47-3.27-5.72C1385.5,533.32,1361.75,523.27,1360.19,525.16Z"/><path class="cls-3" d="M1557,704c-14,17-44,30-44,30s15.8-29.23,16-40c.28-14.86-20-56-20-56s42,35.58,49,52c3,7,63.74-6.25,87-14,6-2,8-42,8-42s23,17,26,32c2.77,13.87,28-13,114,30,26.68,13.34-11.5,15.6-17,20-15,12-24,15-70,13-6.4-.28-1,5-20,11-1.45.46.24-6.88-1-6-7,5-38,9-38,9s20.46-15.45,15-16c-10-1-21-1-38-4-1.65-.29-3,6-3,6s-4.27-8.17-7-9c-2.27-.69-9,3-9,3s-2-6.69-4-7C1588,714,1558.91,701.68,1557,704Z"/><path class="cls-3" d="M1539.38,260c14,17,44,30,44,30s-15.8-29.23-16-40c-.28-14.86,20-56,20-56s-42,35.58-49,52c-3,7-63.75-6.25-87-14-6-2-8-42-8-42s-23,17-26,32c-2.78,13.87-28-13-114,30-26.69,13.34,11.5,15.6,17,20,15,12,24,15,70,13,6.39-.28,1,5,20,11,1.45.46-.24-6.88,1-6,7,5,38,9,38,9s-20.46-15.45-15-16c10-1,21-1,38-4,1.65-.29,3,6,3,6s4.27-8.17,7-9c2.27-.69,9,3,9,3s2-6.69,4-7C1508.38,270,1537.47,257.68,1539.38,260Z"/><path class="cls-3" d="M608.6,189.43c17.43,21.17,54.79,37.36,54.79,37.36s-19.67-36.4-19.92-49.82c-.35-18.51,24.91-69.74,24.91-69.74s-52.27,44.32-61,64.76c-3.74,8.72-79.39-7.78-108.35-17.43-7.47-2.49-10-52.31-10-52.31s-28.65,21.17-32.38,39.85c-3.46,17.27-34.88-16.19-142,37.37-33.23,16.61,14.32,19.42,21.17,24.9,18.68,14.95,29.89,18.68,87.18,16.19,8-.34,1.24,6.23,24.91,13.7,1.8.57-.3-8.57,1.24-7.47C457.9,233,496.51,238,496.51,238S471,218.75,477.83,218.07c12.45-1.24,26.15-1.24,47.32-5,2.06-.36,3.74,7.47,3.74,7.47s5.32-10.18,8.72-11.2c2.82-.86,11.21,3.73,11.21,3.73s2.5-8.33,5-8.72C570,201.88,606.22,186.54,608.6,189.43Z"/><path class="cls-3" d="M780.47,428.45c9.89,12,31.08,21.19,31.08,21.19s-11.16-20.65-11.3-28.25c-.2-10.5,14.13-39.56,14.13-39.56S784.73,407,779.76,418.56c-2.12,4.94-45-4.41-61.46-9.89-4.24-1.41-5.65-29.67-5.65-29.67s-16.25,12-18.37,22.61c-1.95,9.79-19.78-9.19-80.53,21.19-18.85,9.42,8.13,11,12,14.13,10.6,8.47,17,10.59,49.45,9.18,4.52-.2.71,3.53,14.13,7.77,1,.32-.17-4.86.71-4.24,4.94,3.53,26.84,6.36,26.84,6.36s-14.45-10.92-10.6-11.3c7.07-.71,14.84-.71,26.85-2.83,1.16-.2,2.12,4.24,2.12,4.24s3-5.77,4.94-6.36c1.61-.48,6.36,2.12,6.36,2.12s1.42-4.73,2.83-4.94C758.57,435.51,779.12,426.81,780.47,428.45Z"/><path class="cls-3" d="M1448.38,963c14,17,44,30,44,30s-15.8-29.23-16-40c-.28-14.86,20-56,20-56s-42,35.58-49,52c-3,7-63.75-6.25-87-14-6-2-8-42-8-42s-23,17-26,32c-2.78,13.87-28-13-114,30-26.69,13.34,11.5,15.6,17,20,15,12,24,15,70,13,6.39-.28,1,5,20,11,1.45.46-.24-6.88,1-6,7,5,38,9,38,9s-20.46-15.45-15-16c10-1,21-1,38-4,1.65-.29,3,6,3,6s4.27-8.17,7-9c2.27-.69,9,3,9,3s2-6.69,4-7C1417.38,973,1446.47,960.68,1448.38,963Z"/><path class="cls-4" d="M925.4,405.66s6.33-68.75,2-91c-5.93-30.59-48.52-143.53-48.52-143.53S965.83,280.32,978,302.56c11.29,20.7,46.49,107.14,46.49,107.14"/><polyline class="cls-4" points="1222.56 846.35 1252.59 820.64 1269.69 840.07 1328.92 851.45 1404.77 872.17 1526 910.99 1234.49 866.01"/><polyline class="cls-5" points="1211.59 895.42 1180.25 874.64 1223.44 846.3 1234.49 866.01 1517.92 911.37 1447.25 914.7 1211.59 895.42 1211.59 895.42"/><path class="cls-6" d="M614,633.32,602,597.7,486.73,650.26s13.93-22.82,26.86-49.81c2.19-4.58,15.59-8.81,15.59-8.81s-5.83-13-4.31-16.9c6.06-15.48,10.38-30.46,10.38-41.73,0-7-9.19-30.95-21.19-59.26-2.45-5.77,7-21.6,7-21.6s-19.55-7.26-22-12.82c-19.81-44.59-40.37-87.94-40.37-87.94l-.8-1.5s3.24-1.85,4-1.12C632.28,516.84,608,539.08,608,539.08L658.56,533"/><polyline class="cls-7" points="773.79 686.65 773.79 686.65 833.46 706.86"/><polyline class="cls-4" points="717.18 850.39 686.86 826.13 670.69 846.35 612.07 860.5 537.27 884.76 418 929.23 707.08 870.61"/><polyline class="cls-5" points="731.33 898.91 761.66 876.67 717.18 850.39 707.08 870.61 426.09 929.23 496.84 929.23 731.33 898.91 731.33 898.91"/><path class="cls-8" d="M1326.67,664.41c0,66.23-34.34,126.68-90.86,172.56a350.88,350.88,0,0,1-63.47,40.71c-58.26,29.31-129.1,46.5-205.5,46.5-97.73,0-186.35-28.13-251.2-73.78q-8.34-5.86-16.15-12.12C642,792.24,607,731.27,607,664.41,607,521,768.11,404.65,966.84,404.65S1326.67,521,1326.67,664.41Z"/><path class="cls-5" d="M970.41,923.69h-3.57c-57.57-.47-114.35-11.83-164.19-32.87-47.31-20-86.32-47.59-112.8-79.87-29.21-35.6-40.91-74-33.83-111.06,7.12-37.3,24.29-53.93,55.66-53.93,24.38,0,55.36,9.85,91.22,21.26,29.71,9.46,63.39,20.18,99.16,27a40.55,40.55,0,0,0,7.68.69c9.47,0,19.91-2.75,30-5.4s20.52-5.4,29.94-5.4l1.18,0c10.18.25,21.41,3.17,33.29,6.26,12.43,3.24,25.3,6.59,36.87,6.59h0a50.55,50.55,0,0,0,8.78-.73c32.52-5.87,63.83-15.13,91.44-23.3,34.57-10.22,64.42-19.06,87.84-19.06,33.19,0,49.41,18.54,52.61,60.1,2.83,36.82-12.22,74.16-43.54,108-58.11,62.75-160.69,101.74-267.72,101.74Z"/><path d="M711.68,646.45c24.31,0,55.24,9.84,91.07,21.24,29.72,9.46,63.42,20.18,99.21,27a42.57,42.57,0,0,0,7.78.69c9.53,0,20-2.76,30.14-5.42s20.45-5.38,29.81-5.38h1.17c10.12.25,21.32,3.17,33.17,6.26,12.47,3.24,25.36,6.6,37,6.6a50.6,50.6,0,0,0,8.87-.74c32.55-5.87,63.87-15.13,91.5-23.31,34.52-10.21,64.34-19,87.7-19,15.84,0,27.57,4.19,35.85,12.8,9.25,9.62,14.57,24.94,16.25,46.83,2.82,36.69-12.19,73.89-43.41,107.61-27.56,29.77-66.2,55-111.71,72.85-47.82,18.79-101.64,28.72-155.64,28.72h-3.59c-57.51-.46-114.22-11.82-164-32.83-47.25-19.94-86.19-47.51-112.62-79.73-29.11-35.48-40.77-73.74-33.72-110.65s24.08-53.52,55.17-53.52m0-1c-28.72,0-48.38,13.62-56.15,54.34-21,109.83,125.53,222.9,311.31,224.39h3.6c175.85,0,320-103.2,311.76-210.25-3.53-45.8-22.85-60.56-53.1-60.56-42.64,0-107,29.31-179.38,42.36a48.54,48.54,0,0,1-8.69.73c-22.22,0-48.91-12.33-70.15-12.85l-1.19,0c-19,0-41.12,10.8-60,10.8a40.36,40.36,0,0,1-7.59-.68c-78.47-15-145.55-48.27-190.47-48.27Z"/><path class="cls-9" d="M968,861c-63.7,0-119.77-22.78-155.61-41.89-44.05-23.49-82.17-54.44-104.6-84.92-15.28-20.76-21.46-39.39-17.39-52.46,1.42-4.55,4.6-7.41,9.73-8.75a31.82,31.82,0,0,1,7.91-.87c16.54,0,42.69,8.49,75.78,19.25,53.79,17.48,120.72,39.24,189.12,39.24,65.7,0,126.92-16.48,176.11-29.72,31.58-8.5,56.52-15.21,73.81-15.21,12,0,19.19,3.27,22.53,10.28,5.06,10.66,2.22,25.06-8.22,41.64-17.81,28.28-55.22,58.82-100.08,81.68-37.1,18.91-96.39,41.49-168.2,41.73Z"/><path d="M708,672.62c16.46,0,42.57,8.48,75.63,19.23,53.82,17.49,120.79,39.26,189.27,39.26,65.78,0,127-16.49,176.25-29.74,31.54-8.48,56.45-15.19,73.68-15.19,11.81,0,18.83,3.17,22.07,10,5,10.5,2.15,24.73-8.19,41.16-17.76,28.21-55.1,58.68-99.89,81.5-37,18.88-96.26,41.44-168,41.68H968c-63.6,0-119.61-22.75-155.4-41.84A376.19,376.19,0,0,1,751,777.81c-17.44-14.31-32.26-29.5-42.87-43.92-15.19-20.63-21.33-39.09-17.31-52,1.36-4.37,4.43-7.13,9.37-8.41a31.32,31.32,0,0,1,7.79-.86m0-1a32.1,32.1,0,0,0-8,.89c-5.12,1.33-8.56,4.22-10.08,9.08C673.56,734,818.47,861.51,968,861.51h.87c162.34-.54,299.73-117.83,276.95-165.77-3.6-7.56-11.5-10.56-23-10.56-44.4,0-142.15,44.93-249.92,44.93-111,0-221.65-58.49-264.9-58.49Z"/><polygon class="cls-10" points="711.1 671.72 719.21 718.99 773.09 687.38 711.1 671.72"/><polygon class="cls-10" points="836.45 773.57 836.45 706.86 888.74 720.54 836.45 773.57"/><polygon class="cls-10" points="889.01 718.99 909.23 791.77 952.63 729.47 889.01 718.99"/><polygon class="cls-10" points="1004.24 791.77 951.68 729.1 1031.49 729.1 1004.24 791.77"/><polygon class="cls-10" points="1085.1 783.68 1030.52 727.08 1093.18 716.97 1085.1 783.68"/><polygon class="cls-10" points="1151.81 761.44 1093.18 716.97 1151.81 700.8 1151.81 761.44"/><polygon class="cls-10" points="1202.35 733.14 1153.83 700.8 1194.26 690.69 1218.99 687.44 1202.35 733.14"/><polygon class="cls-10" points="714.24 743.25 753.57 718.99 753.57 781.15 714.24 743.25"/><polygon class="cls-10" points="804.69 815.48 812.2 755.38 753.57 781.66 804.69 815.48"/><polygon class="cls-10" points="870.82 781.66 804.11 816.02 889.01 850.39 870.82 781.66"/><polygon class="cls-10" points="951.68 791.77 889.01 850.39 943.59 858.48 999.15 860.07 951.68 791.77"/><polygon class="cls-10" points="1042.65 791.77 998.17 860.5 1093.18 838.85 1042.65 791.77"/><polygon class="cls-10" points="1123.51 773.57 1093.18 838.26 1172.34 799.36 1123.51 773.57"/><polygon class="cls-10" points="1184.15 749.31 1172.02 799.85 1224.32 755.38 1184.15 749.31"/><polygon class="cls-10" points="1224.58 718.99 1224.58 755.38 1246.46 718.99 1224.58 718.99"/><polygon class="cls-10" points="773.79 741.23 834.43 708.88 773.79 688.67 773.79 741.23"/><path class="cls-11" d="M632.6,704.69c-9.42-25.12,3.55-50.42,31-67.57s60.65-16.17,82.89,0"/><path class="cls-11" d="M1301.38,710.76c9.42-25.12-3.55-50.42-31-67.57s-60.64-16.18-82.88,0"/><path class="cls-11" d="M1118.46,859.82c-11.45,20.53-64.31,32.1-134.5,32.39S853.83,878.4,831.44,858.63"/><path class="cls-12" d="M1013.18,709.62a15.22,15.22,0,0,1-3.06-.32,12.52,12.52,0,0,1-8.16-4.77,34.79,34.79,0,0,0-2.45-2.53c-.18-.17-.15-.24-.14-.26.28-.74,3.53-1.8,8-1.8a23.43,23.43,0,0,1,4.64.44c5.59,1.17,11,5,11,6.27,0,0,0,.11-.23.19a13.47,13.47,0,0,0-1.45.62A18.28,18.28,0,0,1,1013.18,709.62Z"/><path d="M1007.34,700.44h0a23.08,23.08,0,0,1,4.53.43c5.11,1.07,9.73,4.27,10.52,5.57-.36.13-.78.33-1.28.57a17.87,17.87,0,0,1-7.93,2.11,14.88,14.88,0,0,1-3-.31c-4.56-.95-5.88-2.41-7.89-4.62-.65-.73-1.39-1.54-2.33-2.41.78-.55,3.51-1.34,7.34-1.34m0-1c-5.17,0-9.73,1.48-8.16,2.93,3.79,3.48,4.29,6,10.85,7.42a15.58,15.58,0,0,0,3.16.33c4.87,0,8.27-2.34,9.74-2.81,2.66-.84-4.28-6-10.84-7.42a23.6,23.6,0,0,0-4.75-.45Z"/><path class="cls-12" d="M934.38,709.62a18.36,18.36,0,0,1-8.14-2.16,12,12,0,0,0-1.45-.62c-.23-.08-.23-.15-.23-.19.07-1.25,5.44-5.1,11-6.27a23.29,23.29,0,0,1,4.64-.44c4.44,0,7.68,1.06,8,1.8,0,0,0,.09-.15.26-1,.91-1.76,1.77-2.45,2.53a12.49,12.49,0,0,1-8.15,4.77,15.24,15.24,0,0,1-3.07.32Z"/><path d="M940.23,700.44c3.83,0,6.55.79,7.33,1.34-.93.87-1.67,1.68-2.33,2.41-2,2.21-3.33,3.67-7.89,4.62a14.88,14.88,0,0,1-3,.31,17.86,17.86,0,0,1-7.92-2.11c-.51-.24-.92-.44-1.29-.57.8-1.3,5.41-4.5,10.52-5.57a23.1,23.1,0,0,1,4.54-.43m0-1a23.43,23.43,0,0,0-4.74.45c-6.56,1.37-13.51,6.58-10.85,7.42,1.47.47,4.88,2.81,9.74,2.81a15.67,15.67,0,0,0,3.17-.33c6.56-1.37,7.05-3.94,10.84-7.42,1.58-1.45-3-2.93-8.16-2.93Z"/><polyline class="cls-13" points="917.82 626 813.21 539.85 813.21 582.93 917.82 626"/><ellipse class="cls-14" cx="856.33" cy="588.31" rx="6.1" ry="13.08"/><ellipse class="cls-15" cx="856.33" cy="588.31" rx="2.62" ry="6.1"/><polyline class="cls-16" points="1031.53 626 1138.67 537.77 1138.67 581.89 1031.53 626"/><ellipse class="cls-17" cx="1094.5" cy="587.4" rx="6.25" ry="13.39"/><ellipse class="cls-15" cx="1094.5" cy="587.4" rx="2.68" ry="6.25"/><path class="cls-18" d="M813.15,509.32s2.2-81.72,121.21,87.52"/><path class="cls-18" d="M1138.53,509.32s-2.2-81.72-121.21,87.52"/><path class="cls-19" d="M12,1079.5c-1.31,0-3,.1-4.86.21-2.29.14-4.87.29-7.33.29a24.3,24.3,0,0,1-7.38-.84c-2-.66-2.93-1.69-2.93-3.16l11-59.91c0-4.32-4.67-6.52-6.93-7.59H-6c1.48.2,155.33,19.91,201,21,2.27,0,4.66.08,7.12.08,38.72,0,94.75-6.68,148.93-13.14,48.72-5.81,94.73-11.3,127-11.94,2.63,0,5.42-.08,8.29-.08,37.85,0,91.86,4.62,144.09,9.08s106.32,9.08,144.25,9.08c2.9,0,5.72,0,8.37-.08,29-.58,70.27-4.42,113.92-8.48,50.85-4.73,103.44-9.62,140.16-9.62,3,0,5.88,0,8.58.1,33.54.81,85,7.07,134.69,13.12,44.31,5.39,86.16,10.49,115.4,11.88,12.09.58,27,.88,43.18.88,61.36,0,143-4.3,187.17-13.89,23.92-5.2,50.6-7.73,81.56-7.73,47.73,0,95.7,6,138,11.39,20.49,2.58,39.83,5,56.27,6.35h.42c3,0,15.54-1.47,31.45-3.33,29.57-3.46,70.08-8.19,87.62-8.19,8,0,8,1,8,1l-10,51.91c0,3,1.75,6.2,3.3,9,1.17,2.11,2.38,4.28,1.9,5.09-.25.43-1.07.52-1.71.52h0Z"/><path d="M1037.1,1004.9c3,0,5.86,0,8.56.1,33.52.81,84.92,7.07,134.64,13.12,44.32,5.39,86.18,10.48,115.44,11.88,12.09.58,27,.88,43.2.88,61.38,0,143.09-4.3,187.27-13.9,23.89-5.2,50.53-7.72,81.46-7.72,47.7,0,95.65,6,138,11.38,20.49,2.58,39.84,5,56.29,6.36h.46c3,0,14.95-1.4,31.51-3.33,29.56-3.46,70-8.19,87.57-8.2,5.43,0,7,.48,7.49.71l-9.93,51.62,0,.09v.1c0,3.08,1.79,6.3,3.37,9.14.89,1.6,2.24,4,1.91,4.59,0,.09-.39.27-1.28.27L12,1079c-1.33,0-3,.1-4.89.21-2.28.14-4.86.3-7.3.3-6.52,0-9.73-1.12-9.81-3.43l11-59.9,0-.09V1016c0-3.27-2.52-5.38-4.82-6.71C15.68,1011.77,152.37,1029,195,1030c2.26,0,4.66.08,7.13.08,38.75,0,94.79-6.68,149-13.14,48.7-5.81,94.7-11.3,126.92-11.94,2.62,0,5.41-.08,8.28-.08,37.84,0,91.84,4.61,144.06,9.08s106.34,9.08,144.29,9.08c2.9,0,5.72,0,8.37-.08,29.05-.59,70.29-4.42,114-8.48,50.84-4.73,103.41-9.62,140.12-9.62m0-1c-68.07,0-191,16.83-254.1,18.1-2.69,0-5.48.08-8.35.08-75.8,0-212.58-18.16-288.35-18.16-2.86,0-5.62,0-8.3.08-68.71,1.37-202.94,25.08-275.89,25.08q-3.66,0-7.11-.08c-46.16-1.1-201-21-201-21-6.6,0,6,1.4,6,8l-11,60c0,3.69,5.13,4.5,10.81,4.5,4.47,0,9.28-.5,12.19-.5l1911,3c6.6,0-3-8.4-3-15l10-52c0-1.07-3.18-1.52-8.55-1.52-27.25,0-110.8,11.53-119.07,11.53H1802c-49.45-4-122.81-17.74-194.33-17.74-28,0-55.77,2.11-81.67,7.74-44.45,9.66-126.25,13.88-187.06,13.88-16.25,0-31-.3-43.16-.88-62.76-3-187.28-23.48-250.1-25q-4.12-.11-8.58-.1Z"/><path class="cls-20" d="M1643.5,1028.5s49.21-100.65,44-136c-5.71-38.73-49.5-98.24-44-137"/><path class="cls-20" d="M1709.5,1056.5s49.21-100.65,44-136c-5.71-38.73-49.5-98.24-44-137,5.07-35.74,39.68-93,37-129"/><path class="cls-20" d="M1581.5,1048.5s49.21-100.65,44-136c-5.71-38.73-49.5-98.24-44-137,5.07-35.74,39.68-93,37-129-2.73-36.65-59-90.25-59-127"/><circle class="cls-21" cx="1708" cy="977" r="6.5"/><path class="cls-22" d="M1707.43,971.53s6.36-.64,5.73,5.73"/><circle class="cls-21" cx="1327" cy="484" r="22.5"/><path class="cls-22" d="M1325,465.06s22-2.2,19.83,19.82"/><circle class="cls-21" cx="281" cy="729" r="22.5"/><path class="cls-22" d="M279,710.06s22-2.2,19.83,19.82"/><circle class="cls-21" cx="227" cy="490" r="22.5"/><path class="cls-22" d="M225,471.06s22-2.2,19.83,19.82"/><circle class="cls-21" cx="190" cy="901" r="22.5"/><path class="cls-22" d="M188,882.06s22-2.2,19.83,19.82"/><circle class="cls-21" cx="37" cy="605" r="22.5"/><path class="cls-22" d="M35,586.06s22-2.2,19.83,19.82"/><circle class="cls-21" cx="1396.25" cy="434.25" r="32.25"/><path class="cls-22" d="M1393.42,407.1s31.56-3.15,28.41,28.42"/><circle class="cls-21" cx="27" cy="292" r="38"/><path class="cls-22" d="M23.66,260s37.2-3.72,33.48,33.48"/><circle class="cls-21" cx="123.25" cy="404.25" r="32.25"/><path class="cls-22" d="M120.42,377.1S152,374,148.83,405.52"/><circle class="cls-21" cx="1310.25" cy="389.25" r="29.75"/><path class="cls-22" d="M1307.64,364.21s29.12-2.91,26.21,26.21"/><circle class="cls-21" cx="477.25" cy="179.75" r="11.25"/><path class="cls-22" d="M476.26,170.28s11-1.1,9.91,9.91"/><circle class="cls-21" cx="422.25" cy="258.25" r="27.75"/><path class="cls-22" d="M419.81,234.89s27.17-2.71,24.45,24.45"/><circle class="cls-21" cx="677.75" cy="227.75" r="33.25"/><path class="cls-22" d="M674.83,199.76s32.55-3.25,29.29,29.3"/><circle class="cls-21" cx="536" cy="349" r="22.5"/><path class="cls-22" d="M534,330.06s22-2.2,19.83,19.82"/><circle class="cls-21" cx="605.25" cy="428.25" r="11.25"/><path class="cls-22" d="M604.26,418.78s11-1.1,9.91,9.91"/><circle class="cls-21" cx="552.25" cy="124.75" r="11.25"/><path class="cls-22" d="M551.26,115.28s11-1.1,9.91,9.91"/><circle class="cls-21" cx="435" cy="458" r="22.5"/><path class="cls-22" d="M433,439.06s22-2.2,19.83,19.82"/><circle class="cls-21" cx="417.75" cy="371.25" r="10.25"/><path class="cls-22" d="M416.85,362.62s10-1,9,9"/><circle class="cls-21" cx="313.25" cy="63.25" r="38.75"/><path class="cls-22" d="M309.85,30.63S347.78,26.84,344,64.77"/><circle class="cls-21" cx="538" cy="56" r="22.5"/><path class="cls-22" d="M536,37.06s22-2.2,19.83,19.82"/><circle class="cls-21" cx="417.25" cy="97.25" r="17.75"/><path class="cls-22" d="M415.69,82.31S433.07,80.57,431.33,98"/><circle class="cls-21" cx="381.25" cy="180.25" r="13.75"/><path class="cls-22" d="M380,168.68s13.46-1.35,12.12,12.11"/><circle class="cls-21" cx="1753.75" cy="755.75" r="10.25"/><path class="cls-22" d="M1752.85,747.12s10-1,9,9"/><circle class="cls-21" cx="1687.75" cy="810.75" r="11.25"/><path class="cls-22" d="M1686.76,801.28s11-1.1,9.91,9.91"/><circle class="cls-21" cx="1603.75" cy="772.75" r="11.25"/><path class="cls-22" d="M1602.76,763.28s11-1.1,9.91,9.91"/><circle class="cls-21" cx="1557.75" cy="710.75" r="11.25"/><path class="cls-22" d="M1556.76,701.28s11-1.1,9.91,9.91"/><circle class="cls-21" cx="1543.82" cy="837.82" r="11.8"/><path class="cls-22" d="M1542.78,827.89s11.55-1.16,10.4,10.39"/><circle class="cls-21" cx="1674.75" cy="385.75" r="31.25"/><path class="cls-22" d="M1672,359.45s30.59-3.06,27.53,27.53"/><circle class="cls-21" cx="1770.25" cy="408.25" r="25.75"/><path class="cls-22" d="M1768,386.58s25.2-2.53,22.68,22.68"/><circle class="cls-21" cx="1682" cy="490" r="22.5"/><path class="cls-22" d="M1680,471.06s22-2.2,19.83,19.82"/><circle class="cls-21" cx="1777.75" cy="954.75" r="11.25"/><path class="cls-22" d="M1776.76,945.28s11-1.1,9.91,9.91"/><circle class="cls-21" cx="1565.75" cy="958.75" r="11.25"/><path class="cls-22" d="M1564.76,949.28s11-1.1,9.91,9.91"/><circle class="cls-21" cx="1655.75" cy="894.75" r="10.25"/><path class="cls-22" d="M1654.85,886.12s10-1,9,9"/><circle class="cls-21" cx="1770.75" cy="854.75" r="11.25"/><path class="cls-22" d="M1769.76,845.28s11-1.1,9.91,9.91"/><circle class="cls-21" cx="1577.54" cy="426.54" r="9.57"/><path class="cls-22" d="M1576.7,418.48s9.37-.93,8.43,8.44"/><circle class="cls-21" cx="1532.75" cy="598.75" r="11.25"/><path class="cls-22" d="M1531.76,589.28s11-1.1,9.91,9.91"/><circle class="cls-21" cx="1613.75" cy="550.75" r="11.25"/><path class="cls-22" d="M1612.76,541.28s11-1.1,9.91,9.91"/><circle class="cls-21" cx="1729.75" cy="575.75" r="16.25"/><path class="cls-22" d="M1728.32,562.07s15.91-1.59,14.32,14.32"/><circle class="cls-21" cx="1782.25" cy="649.25" r="17.75"/><path class="cls-22" d="M1780.69,634.31s17.38-1.74,15.64,15.64"/><circle class="cls-21" cx="1708.75" cy="695.75" r="11.25"/><path class="cls-22" d="M1707.76,686.28s11-1.1,9.91,9.91"/><path class="cls-20" d="M112.5,1056.5s49.21-100.65,44-136c-5.71-38.73-49.5-98.24-44-137,5.07-35.74,39.68-93,37-129-2.73-36.65-59-90.25-59-127"/><path class="cls-20" d="M205.5,1064.5s49.21-100.65,44-136c-5.71-38.73-49.5-98.24-44-137,5.07-35.74,39.68-93,37-129"/><path class="cls-20" d="M363.5,1051.5s49.21-100.65,44-136"/><path class="cls-20" d="M302.5,1064.5s49.21-100.65,44-136c-5.71-38.73-49.5-98.24-44-137"/><circle class="cls-21" cx="260.75" cy="614.75" r="11.25"/><path class="cls-22" d="M259.76,605.28s11-1.1,9.91,9.91"/><circle class="cls-21" cx="79.75" cy="684.75" r="11.25"/><path class="cls-22" d="M78.76,675.28s11-1.1,9.91,9.91"/><circle class="cls-21" cx="90.75" cy="905.75" r="11.25"/><path class="cls-22" d="M89.76,896.28s11-1.1,9.91,9.91"/><circle class="cls-21" cx="280.75" cy="914.75" r="11.25"/><path class="cls-22" d="M279.76,905.28s11-1.1,9.91,9.91"/><circle class="cls-21" cx="145.75" cy="574.75" r="11.25"/><path class="cls-22" d="M144.76,565.28s11-1.1,9.91,9.91"/><circle class="cls-21" cx="156.75" cy="766.75" r="11.25"/><path class="cls-22" d="M155.76,757.28s11-1.1,9.91,9.91"/><circle class="cls-21" cx="351.75" cy="801.75" r="11.25"/><path class="cls-22" d="M350.76,792.28s11-1.1,9.91,9.91"/><polygon class="cls-23" points="1256.9 37 1163.76 190.02 1272.43 363 667 360.78 775.67 187.8 671.43 37 1256.9 37"/><path class="cls-24" d="M827.7,46.71l-4.37,32.9a28.78,28.78,0,0,0-4.52-.86c-1.51-.15-3-.23-4.52-.23a39.22,39.22,0,0,0-11,1.52,27.15,27.15,0,0,0-9.24,4.64,22.87,22.87,0,0,0-6.4,7.8,24,24,0,0,0-2.37,11,17.53,17.53,0,0,0,1.28,7,13.11,13.11,0,0,0,3.63,4.91,15.11,15.11,0,0,0,5.53,2.88,24.68,24.68,0,0,0,7,.94,31,31,0,0,0,6-.62,52.75,52.75,0,0,0,6.16-1.64,60.86,60.86,0,0,0,5.93-2.34q2.88-1.32,5.3-2.73L823,148.53a48.29,48.29,0,0,1-6.59,2.77q-3.54,1.22-7.29,2.11a70,70,0,0,1-7.48,1.36,58.37,58.37,0,0,1-7.17.47,46.18,46.18,0,0,1-43.31-28.81,48.13,48.13,0,0,1-3.63-18.75c0-8.89-24-47.39-30.65-54-5.85-5.85,40.76,14.13,45.7,8.21A52.71,52.71,0,0,1,781,47.8q10.95-5.14,25.22-5.14a73.66,73.66,0,0,1,11,.85A36.72,36.72,0,0,1,827.7,46.71Z"/><path class="cls-24" d="M934.69,103.5a56.64,56.64,0,0,1-1.63,13.69,54.22,54.22,0,0,1-4.72,12.36,51.17,51.17,0,0,1-7.49,10.56,47,47,0,0,1-9.9,8.22,49.56,49.56,0,0,1-39.06,5.46,50.54,50.54,0,0,1-11.89-5A47.63,47.63,0,0,1,850,141a48.53,48.53,0,0,1-7.64-10.14,52.2,52.2,0,0,1-4.91-12,50.09,50.09,0,0,1-1.75-13.33A54.33,54.33,0,0,1,842,80a52.7,52.7,0,0,1,7.45-10.6A48.93,48.93,0,0,1,859.26,61,46.92,46.92,0,0,1,871,55.56a44.91,44.91,0,0,1,13.33-2A58.09,58.09,0,0,1,905,57.12a43.68,43.68,0,0,1,26.12,25.76A56,56,0,0,1,934.69,103.5Zm-34.61,2a22,22,0,0,0-1-6.51,18.08,18.08,0,0,0-2.84-5.61,14.73,14.73,0,0,0-4.64-4,13.06,13.06,0,0,0-6.36-1.52,15.46,15.46,0,0,0-6.55,1.33,15,15,0,0,0-5,3.62,16,16,0,0,0-3.15,5.38,19.35,19.35,0,0,0-1.1,6.51,23.84,23.84,0,0,0,.94,6.55,19.41,19.41,0,0,0,2.81,5.93,14.83,14.83,0,0,0,4.64,4.28,12.28,12.28,0,0,0,6.43,1.64,14.73,14.73,0,0,0,6.59-1.44,14.89,14.89,0,0,0,5-3.9,18,18,0,0,0,3.12-5.65A20.57,20.57,0,0,0,900.08,105.53Z"/><path class="cls-24" d="M1035,151.84l-38.68,5-4.67-17.62H973.91L970,156.83l-39.76-3.9,31-103.85,43.35-2.18Zm-46.16-36.48L983,88.22l-5.77,27.14Z"/><path class="cls-24" d="M1116.51,117.07a44.11,44.11,0,0,1-3.7,18.67,37.28,37.28,0,0,1-10.14,13.3,43.55,43.55,0,0,1-15.05,8,62.51,62.51,0,0,1-18.51,2.65,39.17,39.17,0,0,1-8.38-1c-3-.68-6.13-1.52-9.24-2.54s-6.12-2.1-9-3.27-5.44-2.28-7.68-3.32l3.43-32.12a54.63,54.63,0,0,0,14.7,6,63.69,63.69,0,0,0,15.86,2.07c1,0,2.19,0,3.59-.12a16.59,16.59,0,0,0,4-.7,8.6,8.6,0,0,0,3.23-1.75,4.22,4.22,0,0,0,1.33-3.35A3.66,3.66,0,0,0,1080,117a6.94,6.94,0,0,0-2.42-1.71,15.16,15.16,0,0,0-3.35-1c-1.25-.23-2.47-.4-3.66-.5s-2.32-.16-3.35-.16h-2.5a30.82,30.82,0,0,1-12.2-2.34,27.78,27.78,0,0,1-9.44-6.51,29.72,29.72,0,0,1-6.12-9.9,34.75,34.75,0,0,1-2.18-12.44A36,36,0,0,1,1038.5,66a38.28,38.28,0,0,1,9.91-12.39,44.66,44.66,0,0,1,14.23-7.84,51.18,51.18,0,0,1,16.6-2.73c2.55,0,5.17.09,7.88.28a75.91,75.91,0,0,1,8.07,1A79.56,79.56,0,0,1,1103,46a46.76,46.76,0,0,1,7.25,2.73l-3,31.66a93.56,93.56,0,0,0-11.11-3,55.26,55.26,0,0,0-11.34-1.21c-.68,0-1.55,0-2.62,0s-2.18.1-3.35.23a35,35,0,0,0-3.55.58,15.5,15.5,0,0,0-3.19,1.06,6.05,6.05,0,0,0-2.26,1.75,3.64,3.64,0,0,0-.78,2.57,3.73,3.73,0,0,0,1.28,2.77,8.54,8.54,0,0,0,3.12,1.64,22.28,22.28,0,0,0,4.21.82q2.29.22,4.56.27c1.51,0,2.91,0,4.21,0a21.47,21.47,0,0,1,3.2.12,31.76,31.76,0,0,1,11.23,2.65,26.27,26.27,0,0,1,8.46,6,25.44,25.44,0,0,1,5.3,8.93A34.11,34.11,0,0,1,1116.51,117.07Z"/><path class="cls-24" d="M1238.05,47s-31,20-36.79,33.13c-2.33,5.33-23.24.94-23.24.94L1172.1,155l-32.9,1.72.15-73.91L1116.12,84l.94-36.8,95.58-.18Z"/><path class="cls-24" d="M829.92,233.88l-4.37,32.91a26.65,26.65,0,0,0-4.52-.86,42.92,42.92,0,0,0-4.52-.24,39.29,39.29,0,0,0-11,1.52,27.52,27.52,0,0,0-9.24,4.64,23,23,0,0,0-6.39,7.8,23.9,23.9,0,0,0-2.38,11,17.49,17.49,0,0,0,1.29,7,13,13,0,0,0,3.63,4.91,15.2,15.2,0,0,0,5.53,2.89,25.05,25.05,0,0,0,7,.93,31,31,0,0,0,6-.62,51.33,51.33,0,0,0,6.16-1.64,56.17,56.17,0,0,0,5.93-2.34q2.88-1.32,5.3-2.73l-3.12,36.65a48.28,48.28,0,0,1-6.59,2.76c-2.37.81-4.79,1.51-7.29,2.11a67.58,67.58,0,0,1-7.48,1.36,56.5,56.5,0,0,1-7.18.47,46.52,46.52,0,0,1-18.47-3.66c-5.72-2.45-9.37-12.36-14.9-10.06-106.31,44.29,2.36-13.37-13.17-20-5.77-2.48-.39-7.11-.39-13.82a81.07,81.07,0,0,1,3.82-25.14A61.28,61.28,0,0,1,764.82,249a52.5,52.5,0,0,1,18.36-14q11-5.16,25.22-5.15a73.8,73.8,0,0,1,11,.86A36.49,36.49,0,0,1,829.92,233.88Z"/><path class="cls-24" d="M903.36,305.72l-3.27,34.61-65.65,5.15q.46-27.21,1-54.11t1.44-54.11h40.55q-1.8,17.09-3.43,34.11t-2.34,34.35q3.66.15,7.25.15h7.25c2.91,0,5.77,0,8.57-.08S900.45,305.72,903.36,305.72Z"/><path class="cls-24" d="M985.29,237.73q-.46,7.34-.85,14.5c-.27,4.78-.6,9.62-1,14.5l-33.06,1.72-.77,9.82h23.23l-1.72,24.17-23.39.78-.78,11.38H980q-.47,8.58-1,17t-.9,17l-67.21,1.56,2.5-112.43Z"/><path class="cls-24" d="M1086.26,343.45l-38.67,5-4.68-17.62h-17.78l-3.89,17.62-39.77-3.9,31-103.85,43.35-2.18ZM1040.1,307l-5.92-27.13L1028.41,307Z"/><path class="cls-24" d="M1179.27,275a53.32,53.32,0,0,1-1,11,33.29,33.29,0,0,1-3.31,9.08,32.52,32.52,0,0,1-5.85,7.64,51.84,51.84,0,0,1-8.66,6.71l51,39.13-67.56.79-12-33.22-9.67.32-1.4,32.43h-33.53q.39-17.78.74-35.4t.82-35.39q.17-9,.31-17.78t.63-17.78a102.69,102.69,0,0,1,10.76-3.35,100.82,100.82,0,0,1,10.64-2.06q5.34-.75,10.84-1t11.26-.27a60.48,60.48,0,0,1,17.19,2.45,44.75,44.75,0,0,1,14.7,7.37,37,37,0,0,1,10.25,12.24A36.07,36.07,0,0,1,1179.27,275Zm-34.93,2.49a19.37,19.37,0,0,0-.89-6,13.39,13.39,0,0,0-2.65-4.72,12.36,12.36,0,0,0-4.37-3.12,15.37,15.37,0,0,0-6.12-1.13,23.28,23.28,0,0,0-3,.2,21.12,21.12,0,0,0-2.89.58l-1.24,29H1125a28.45,28.45,0,0,0,6.82-.86,20.55,20.55,0,0,0,6.24-2.65,14.81,14.81,0,0,0,4.52-4.6A12.4,12.4,0,0,0,1144.34,277.49Z"/><text class="cls-25" transform="translate(944.82 215.33)">IS</text></svg>