<svg id="Layer_1" data-name="Layer 1" xmlns="http://www.w3.org/2000/svg" xmlns:xlink="http://www.w3.org/1999/xlink" width="1920" height="1083.98" viewBox="0 0 1920 1083.98"><defs><style>.cls-1{fill:url(#linear-gradient);}.cls-2{fill:url(#linear-gradient-2);}.cls-3{fill:url(#linear-gradient-3);}.cls-4,.cls-5{stroke:#000;stroke-miterlimit:10;}.cls-4{stroke-width:2px;}.cls-5{fill:#82bbce;stroke-width:0.5px;opacity:0.5;}.cls-6{fill:#815d38;}.cls-7{fill:#fcff34;}.cls-8{fill:#7b27ce;}.cls-9{fill:#7f8107;}.cls-10{fill:#6a5281;}.cls-11{font-size:75px;font-family:LuckiestGuy-Regular, Luckiest Guy;}.cls-12{letter-spacing:-0.01em;}</style><linearGradient id="linear-gradient" x1="-1" y1="544.52" x2="1926.99" y2="544.52" gradientUnits="userSpaceOnUse"><stop offset="0.18" stop-color="#020c86"/><stop offset="0.83" stop-color="#2738ff"/><stop offset="1" stop-color="#606060"/></linearGradient><linearGradient id="linear-gradient-2" x1="1562.48" y1="696.51" x2="1923.98" y2="696.51" gradientUnits="userSpaceOnUse"><stop offset="0.18" stop-color="#b27900"/><stop offset="1" stop-color="#ffb519"/><stop offset="1" stop-color="#606060"/></linearGradient><linearGradient id="linear-gradient-3" x1="966.01" y1="297.02" x2="966.01" y2="-1.98" gradientUnits="userSpaceOnUse"><stop offset="0" stop-color="aqua"/><stop offset="0.63" stop-color="#baeeff"/><stop offset="1" stop-color="#fff"/><stop offset="1" stop-color="#f4ffff"/></linearGradient></defs><title>Artboard 60 copy</title><rect class="cls-1" x="-1" y="2.02" width="1927.99" height="1085"/><path class="cls-2" d="M1655.86,1088.29h256.07c6.62,0,12-3.9,12-8.66V314.81c0-4.77-5.43-8.67-12-8.67h-48.2c-6.63,0-69.29-4.77-69.29,0,0,0-23.24,69.25-27.11,92.44-7.1,42.45-53.76,89.51-42.18,131.44,10.79,39.07-30.35,165.3-32.13,205.11-1.19,26.5-69,77.72-73.31,130.72-3.63,44.95,56.07,92.35,56.24,114.83.3,40.76-113.47,105.45-113.47,105.45C1562.48,1090.89,1649.24,1088.29,1655.86,1088.29Z"/><rect class="cls-3" x="2.01" y="-1.98" width="1927.99" height="299"/><rect class="cls-4" x="788.27" y="248.76" width="124.47" height="8.26" rx="2"/><polyline class="cls-5" points="857.76 162.66 910.67 247.72 790.34 247.72 845.11 162.71"/><rect class="cls-4" x="790.34" y="69.02" width="124.47" height="8.26" rx="2" transform="translate(1705.16 146.3) rotate(-180)"/><polyline class="cls-5" points="845.32 163.38 792.42 78.32 912.74 78.32 857.98 163.33"/><path class="cls-6" d="M792.42,246.69H908.59l-10.37-16.53s-33.11-20.32-45.64-20.66c-12.8-.34-47.71,18.6-47.71,18.6"/><path class="cls-6" d="M851.54,218.8h0a6.23,6.23,0,0,1-6.22-6.2V165.09c0-3.41-.31-15.5,3.11-15.5l8.3-6.2c3.42,0,1,18.29,1,21.7V212.6A6.23,6.23,0,0,1,851.54,218.8Z"/><polyline class="cls-6" points="827.69 133.06 875.4 133.06 850.51 172.32 846.36 161.99"/><polygon class="cls-7" points="1852.29 396.55 1840.15 368.65 1852.82 363.18 1864.96 391.08 1852.29 396.55"/><polygon class="cls-8" points="1839.63 402.02 1827.48 374.12 1840.15 368.65 1852.29 396.55 1839.63 402.02"/><polygon class="cls-8" points="1864.96 391.08 1852.82 363.18 1865.49 357.71 1877.63 385.61 1864.96 391.08"/><polygon class="cls-7" points="1877.63 385.61 1865.49 357.71 1878.15 352.24 1890.3 380.14 1877.63 385.61"/><polygon class="cls-8" points="1890.3 380.14 1878.15 352.24 1890.82 346.77 1902.97 374.67 1890.3 380.14"/><polygon class="cls-7" points="1833.3 518.54 1810.19 468 1826.96 460.39 1850.07 510.93 1833.3 518.54"/><polygon class="cls-9" points="1816.53 526.15 1793.42 475.61 1810.19 468 1833.3 518.54 1816.53 526.15"/><polygon class="cls-9" points="1850.07 510.93 1826.96 460.39 1843.73 452.79 1866.84 503.33 1850.07 510.93"/><polygon class="cls-7" points="1866.84 503.33 1843.73 452.79 1860.5 445.18 1883.61 495.72 1866.84 503.33"/><polygon class="cls-9" points="1883.61 495.72 1860.5 445.18 1877.27 437.57 1900.38 488.11 1883.61 495.72"/><polygon class="cls-10" points="1815.29 732.23 1776.82 662.88 1799.83 650.22 1838.31 719.57 1815.29 732.23"/><polygon class="cls-8" points="1792.28 744.89 1753.81 675.54 1776.82 662.88 1815.29 732.23 1792.28 744.89"/><polygon class="cls-8" points="1838.31 719.57 1799.83 650.22 1822.84 637.56 1861.32 706.91 1838.31 719.57"/><polygon class="cls-10" points="1860.71 707.25 1822.24 637.89 1845.25 625.24 1883.72 694.59 1860.71 707.25"/><polygon class="cls-8" points="1883.72 694.59 1845.25 625.24 1868.26 612.58 1906.73 681.93 1883.72 694.59"/><polygon class="cls-8" points="1773.97 1011.13 1725.43 917.96 1756.35 901.99 1804.89 995.16 1773.97 1011.13"/><polygon class="cls-9" points="1743.05 1027.11 1694.52 933.93 1725.43 917.96 1773.97 1011.13 1743.05 1027.11"/><polygon class="cls-9" points="1804.89 995.16 1756.35 901.99 1787.27 886.01 1835.81 979.19 1804.89 995.16"/><polygon class="cls-8" points="1835.81 979.19 1787.27 886.01 1818.19 870.04 1866.72 963.22 1835.81 979.19"/><polygon class="cls-9" points="1866.72 963.22 1818.19 870.04 1849.1 854.07 1897.64 947.25 1866.72 963.22"/><text class="cls-11" transform="translate(1539 132.08)">S<tspan class="cls-12" x="39.81" y="0">C</tspan><tspan x="77.97" y="0">ORE:</tspan></text></svg>